<svg width="14" height="14" viewBox="0 0 14 14" fill="none" xmlns="http://www.w3.org/2000/svg">
<path d="M13.3007 0.710689C13.1139 0.523436 12.8602 0.418203 12.5957 0.418203C12.3312 0.418203 12.0775 0.523436 11.8907 0.710689L7.0007 5.59069L2.1107 0.700689C1.92387 0.513436 1.67022 0.408203 1.4057 0.408203C1.14119 0.408203 0.887535 0.513436 0.700703 0.700689C0.310703 1.09069 0.310703 1.72069 0.700703 2.11069L5.5907 7.00069L0.700703 11.8907C0.310703 12.2807 0.310703 12.9107 0.700703 13.3007C1.0907 13.6907 1.7207 13.6907 2.1107 13.3007L7.0007 8.41069L11.8907 13.3007C12.2807 13.6907 12.9107 13.6907 13.3007 13.3007C13.6907 12.9107 13.6907 12.2807 13.3007 11.8907L8.4107 7.00069L13.3007 2.11069C13.6807 1.73069 13.6807 1.09069 13.3007 0.710689Z" fill="#011342"/>
</svg>
