<svg width="20" height="20" viewBox="0 0 20 20" fill="none" xmlns="http://www.w3.org/2000/svg">
<path d="M10.0013 18.3999C9.7513 18.3999 9.5013 18.3416 9.29297 18.2249C7.73464 17.3749 4.99297 16.4749 3.2763 16.2499L3.03464 16.2166C1.94297 16.0833 1.04297 15.0583 1.04297 13.9499V3.88326C1.04297 3.22492 1.3013 2.62493 1.7763 2.19159C2.2513 1.75826 2.86797 1.54993 3.51797 1.60826C5.3513 1.74993 8.11797 2.66659 9.68464 3.64993L9.88464 3.76659C9.94297 3.79993 10.068 3.79993 10.118 3.77493L10.2513 3.69159C11.818 2.70826 14.5846 1.77493 16.4263 1.61659C16.443 1.61659 16.5096 1.61659 16.5263 1.61659C17.1346 1.55826 17.7596 1.77493 18.2263 2.20826C18.7013 2.64159 18.9596 3.24159 18.9596 3.89992V13.9583C18.9596 15.0749 18.0596 16.0916 16.9596 16.2249L16.6846 16.2583C14.968 16.4833 12.218 17.3916 10.693 18.2333C10.493 18.3499 10.2513 18.3999 10.0013 18.3999ZM3.31797 2.84993C3.0513 2.84993 2.80964 2.94159 2.61797 3.11659C2.40964 3.30826 2.29297 3.58326 2.29297 3.88326V13.9499C2.29297 14.4416 2.71797 14.9166 3.19297 14.9833L3.44297 15.0166C5.31797 15.2666 8.19297 16.2083 9.85964 17.1166C9.93464 17.1499 10.043 17.1583 10.0846 17.1416C11.7513 16.2166 14.643 15.2666 16.5263 15.0166L16.8096 14.9833C17.2846 14.9249 17.7096 14.4416 17.7096 13.9499V3.89159C17.7096 3.58326 17.593 3.31659 17.3846 3.11659C17.168 2.92493 16.893 2.83326 16.5846 2.84993C16.568 2.84993 16.5013 2.84993 16.4846 2.84993C14.893 2.99159 12.3263 3.84993 10.9263 4.72493L10.793 4.81659C10.3346 5.09993 9.68464 5.09993 9.24297 4.82493L9.04297 4.70826C7.61797 3.83326 5.0513 2.98326 3.41797 2.84993C3.38464 2.84993 3.3513 2.84993 3.31797 2.84993Z" fill="white"/>
<path d="M10 17.7002C9.65833 17.7002 9.375 17.4169 9.375 17.0752V4.5752C9.375 4.23353 9.65833 3.9502 10 3.9502C10.3417 3.9502 10.625 4.23353 10.625 4.5752V17.0752C10.625 17.4252 10.3417 17.7002 10 17.7002Z" fill="white"/>
<path d="M6.45703 7.7002H4.58203C4.24036 7.7002 3.95703 7.41686 3.95703 7.0752C3.95703 6.73353 4.24036 6.4502 4.58203 6.4502H6.45703C6.7987 6.4502 7.08203 6.73353 7.08203 7.0752C7.08203 7.41686 6.7987 7.7002 6.45703 7.7002Z" fill="white"/>
<path d="M7.08203 10.2002H4.58203C4.24036 10.2002 3.95703 9.91686 3.95703 9.5752C3.95703 9.23353 4.24036 8.9502 4.58203 8.9502H7.08203C7.4237 8.9502 7.70703 9.23353 7.70703 9.5752C7.70703 9.91686 7.4237 10.2002 7.08203 10.2002Z" fill="white"/>
</svg>
