<svg width="20" height="20" viewBox="0 0 20 20" fill="none" xmlns="http://www.w3.org/2000/svg">
<path d="M16.668 2.49967H15.8346V1.66634C15.8346 1.20801 15.4596 0.833008 15.0013 0.833008C14.543 0.833008 14.168 1.20801 14.168 1.66634V2.49967H5.83464V1.66634C5.83464 1.20801 5.45964 0.833008 5.0013 0.833008C4.54297 0.833008 4.16797 1.20801 4.16797 1.66634V2.49967H3.33464C2.41797 2.49967 1.66797 3.24967 1.66797 4.16634V17.4997C1.66797 18.4163 2.41797 19.1663 3.33464 19.1663H16.668C17.5846 19.1663 18.3346 18.4163 18.3346 17.4997V4.16634C18.3346 3.24967 17.5846 2.49967 16.668 2.49967ZM15.8346 17.4997H4.16797C3.70964 17.4997 3.33464 17.1247 3.33464 16.6663V6.66634H16.668V16.6663C16.668 17.1247 16.293 17.4997 15.8346 17.4997Z" fill="white"/>
</svg>
