<svg width="18" height="18" viewBox="0 0 18 18" fill="none" xmlns="http://www.w3.org/2000/svg">
<path d="M4.38448 9.00036V5.9659C4.39349 5.36942 4.52011 4.78059 4.75708 4.23314C4.99405 3.68568 5.33672 3.19037 5.76544 2.77558C6.19417 2.36078 6.70053 2.03466 7.25552 1.8159C7.8105 1.59714 8.40319 1.49004 8.99964 1.50073C9.59608 1.49004 10.1888 1.59714 10.7438 1.8159C11.2987 2.03466 11.8051 2.36078 12.2338 2.77558C12.6626 3.19037 13.0052 3.68568 13.2422 4.23314C13.4792 4.78059 13.6058 5.36942 13.6148 5.9659V9.00036M11.3072 15.0578C11.9192 15.0578 12.5062 14.8146 12.9389 14.3819C13.3717 13.9491 13.6148 13.3622 13.6148 12.7502V10.1542M11.3072 15.0578C11.3072 15.4403 11.1553 15.8071 10.8848 16.0776C10.6143 16.3481 10.2475 16.5 9.86498 16.5H8.13429C7.75179 16.5 7.38495 16.3481 7.11448 16.0776C6.84401 15.8071 6.69206 15.4403 6.69206 15.0578C6.69206 14.6753 6.84401 14.3084 7.11448 14.0379C7.38495 13.7675 7.75179 13.6155 8.13429 13.6155H9.86498C10.2475 13.6155 10.6143 13.7675 10.8848 14.0379C11.1553 14.3084 11.3072 14.6753 11.3072 15.0578ZM2.65379 7.26968H3.80758C3.96058 7.26968 4.10732 7.33046 4.21551 7.43865C4.3237 7.54684 4.38448 7.69357 4.38448 7.84657V11.3079C4.38448 11.4609 4.3237 11.6077 4.21551 11.7159C4.10732 11.8241 3.96058 11.8848 3.80758 11.8848H2.65379C2.34779 11.8848 2.05431 11.7633 1.83794 11.5469C1.62156 11.3305 1.5 11.0371 1.5 10.731V8.42347C1.5 8.11746 1.62156 7.82399 1.83794 7.60762C2.05431 7.39124 2.34779 7.26968 2.65379 7.26968ZM15.3455 11.8848H14.1917C14.0387 11.8848 13.892 11.8241 13.7838 11.7159C13.6756 11.6077 13.6148 11.4609 13.6148 11.3079V7.84657C13.6148 7.69357 13.6756 7.54684 13.7838 7.43865C13.892 7.33046 14.0387 7.26968 14.1917 7.26968H15.3455C15.6515 7.26968 15.945 7.39124 16.1613 7.60762C16.3777 7.82399 16.4993 8.11746 16.4993 8.42347V10.731C16.4993 11.0371 16.3777 11.3305 16.1613 11.5469C15.945 11.7633 15.6515 11.8848 15.3455 11.8848Z" stroke="white" stroke-width="1.5" stroke-linecap="round" stroke-linejoin="round"/>
</svg>
