<svg width="18" height="18" viewBox="0 0 18 18" fill="none" xmlns="http://www.w3.org/2000/svg">
<path d="M9.0013 0.666992C4.4013 0.666992 0.667969 4.40033 0.667969 9.00033C0.667969 13.6003 4.4013 17.3337 9.0013 17.3337C13.6013 17.3337 17.3346 13.6003 17.3346 9.00033C17.3346 4.40033 13.6013 0.666992 9.0013 0.666992ZM9.0013 15.667C5.3263 15.667 2.33464 12.6753 2.33464 9.00033C2.33464 5.32533 5.3263 2.33366 9.0013 2.33366C12.6763 2.33366 15.668 5.32533 15.668 9.00033C15.668 12.6753 12.6763 15.667 9.0013 15.667ZM8.16797 12.3337H9.83464V14.0003H8.16797V12.3337ZM9.50964 4.03366C7.79297 3.78366 6.2763 4.84199 5.81797 6.35866C5.66797 6.84199 6.03464 7.33366 6.54297 7.33366H6.70964C7.0513 7.33366 7.3263 7.09199 7.44297 6.77533C7.70964 6.03366 8.5013 5.52533 9.35964 5.70866C10.1513 5.87533 10.7346 6.65033 10.668 7.45866C10.5846 8.57533 9.31797 8.81699 8.6263 9.85866C8.6263 9.86699 8.61797 9.86699 8.61797 9.87533C8.60964 9.89199 8.6013 9.90033 8.59297 9.91699C8.51797 10.042 8.44297 10.1837 8.38464 10.3337C8.3763 10.3587 8.35964 10.3753 8.3513 10.4003C8.34297 10.417 8.34297 10.4337 8.33464 10.4587C8.23464 10.742 8.16797 11.0837 8.16797 11.5003H9.83464C9.83464 11.1503 9.9263 10.8587 10.068 10.6087C10.0846 10.5837 10.093 10.5587 10.1096 10.5337C10.1763 10.417 10.2596 10.3087 10.343 10.2087C10.3513 10.2003 10.3596 10.1837 10.368 10.1753C10.4513 10.0753 10.543 9.98366 10.643 9.89199C11.443 9.13366 12.5263 8.51699 12.3013 6.92533C12.1013 5.47533 10.9596 4.25033 9.50964 4.03366Z" fill="white"/>
</svg>
