<svg width="16" height="16" viewBox="0 0 16 16" fill="none" xmlns="http://www.w3.org/2000/svg">
<path fill-rule="evenodd" clip-rule="evenodd" d="M2.16667 0.5H13.8333C14.75 0.5 15.5 1.25 15.5 2.16667V13.8333C15.5 14.75 14.75 15.5 13.8333 15.5H2.16667C1.25 15.5 0.5 14.75 0.5 13.8333V11.3333C0.5 10.875 0.875 10.5 1.33333 10.5C1.79167 10.5 2.16667 10.875 2.16667 11.3333V13C2.16667 13.4583 2.54167 13.8333 3 13.8333H13C13.4583 13.8333 13.8333 13.4583 13.8333 13V3C13.8333 2.54167 13.4583 2.16667 13 2.16667H3C2.54167 2.16667 2.16667 2.54167 2.16667 3V4.66667C2.16667 5.125 1.79167 5.5 1.33333 5.5C0.875 5.5 0.5 5.125 0.5 4.66667V2.16667C0.5 1.25 1.24167 0.5 2.16667 0.5ZM11.1583 8.58333L8.16667 11.575C7.84167 11.9 7.31667 11.9 6.99167 11.575C6.675 11.2583 6.66667 10.725 6.99167 10.4L8.55833 8.83333H1.33333C0.875 8.83333 0.5 8.45833 0.5 8C0.5 7.54167 0.875 7.16667 1.33333 7.16667H8.55833L6.99167 5.59167C6.66667 5.26667 6.66667 4.74167 6.99167 4.41667C7.14736 4.26062 7.35874 4.17293 7.57917 4.17293C7.7996 4.17293 8.01097 4.26062 8.16667 4.41667L11.1583 7.40833C11.4833 7.73333 11.4833 8.25833 11.1583 8.58333Z" fill="white"/>
</svg>
