<svg width="18" height="18" viewBox="0 0 18 18" fill="none" xmlns="http://www.w3.org/2000/svg">
<path d="M12.493 0.666992H5.50964C2.4763 0.666992 0.667969 2.47533 0.667969 5.50866V12.4837C0.667969 15.5253 2.4763 17.3337 5.50964 17.3337H12.4846C15.518 17.3337 17.3263 15.5253 17.3263 12.492V5.50866C17.3346 2.47533 15.5263 0.666992 12.493 0.666992ZM13.168 12.092C13.168 13.4003 12.4513 13.7087 11.5846 12.7753C11.1846 12.3503 10.568 12.3837 10.218 12.8503L9.7263 13.5087C9.33463 14.0337 8.68464 14.0337 8.29297 13.5087L7.79297 12.842C7.44297 12.3753 6.8263 12.342 6.4263 12.767C5.5513 13.7003 4.83464 13.392 4.83464 12.092V6.56699C4.83464 4.59199 5.3013 4.10033 7.1513 4.10033H10.8513C12.7013 4.10033 13.168 4.59199 13.168 6.56699V12.092Z" fill="white"/>
</svg>
