<svg width="18" height="18" viewBox="0 0 18 18" fill="none" xmlns="http://www.w3.org/2000/svg">
<path d="M9.0013 0.756836C4.4013 0.756836 0.667969 4.49017 0.667969 9.09017C0.667969 13.6902 4.4013 17.4235 9.0013 17.4235C13.6013 17.4235 17.3346 13.6902 17.3346 9.09017C17.3346 4.49017 13.6013 0.756836 9.0013 0.756836ZM9.0013 4.09017C10.6096 4.09017 11.918 5.3985 11.918 7.00684C11.918 8.61517 10.6096 9.9235 9.0013 9.9235C7.39297 9.9235 6.08464 8.61517 6.08464 7.00684C6.08464 5.3985 7.39297 4.09017 9.0013 4.09017ZM9.0013 15.7568C7.30964 15.7568 5.30964 15.0735 3.88464 13.3568C5.29297 12.2568 7.06797 11.5902 9.0013 11.5902C10.9346 11.5902 12.7096 12.2568 14.118 13.3568C12.693 15.0735 10.693 15.7568 9.0013 15.7568Z" fill="white"/>
</svg>
