<svg width="20" height="21" viewBox="0 0 20 21" fill="none" xmlns="http://www.w3.org/2000/svg">
<path d="M4.16675 9.30827H5.83341C7.50008 9.30827 8.33341 8.47493 8.33341 6.80827V5.1416C8.33341 3.47493 7.50008 2.6416 5.83341 2.6416H4.16675C2.50008 2.6416 1.66675 3.47493 1.66675 5.1416V6.80827C1.66675 8.47493 2.50008 9.30827 4.16675 9.30827Z" stroke="white" stroke-width="1.5" stroke-miterlimit="10" stroke-linecap="round" stroke-linejoin="round"/>
<path d="M14.1667 9.30827H15.8334C17.5001 9.30827 18.3334 8.47493 18.3334 6.80827V5.1416C18.3334 3.47493 17.5001 2.6416 15.8334 2.6416H14.1667C12.5001 2.6416 11.6667 3.47493 11.6667 5.1416V6.80827C11.6667 8.47493 12.5001 9.30827 14.1667 9.30827Z" stroke="white" stroke-width="1.5" stroke-miterlimit="10" stroke-linecap="round" stroke-linejoin="round"/>
<path d="M14.1667 19.3083H15.8334C17.5001 19.3083 18.3334 18.4749 18.3334 16.8083V15.1416C18.3334 13.4749 17.5001 12.6416 15.8334 12.6416H14.1667C12.5001 12.6416 11.6667 13.4749 11.6667 15.1416V16.8083C11.6667 18.4749 12.5001 19.3083 14.1667 19.3083Z" stroke="white" stroke-width="1.5" stroke-miterlimit="10" stroke-linecap="round" stroke-linejoin="round"/>
<path d="M4.16675 19.3083H5.83341C7.50008 19.3083 8.33341 18.4749 8.33341 16.8083V15.1416C8.33341 13.4749 7.50008 12.6416 5.83341 12.6416H4.16675C2.50008 12.6416 1.66675 13.4749 1.66675 15.1416V16.8083C1.66675 18.4749 2.50008 19.3083 4.16675 19.3083Z" stroke="white" stroke-width="1.5" stroke-miterlimit="10" stroke-linecap="round" stroke-linejoin="round"/>
</svg>
