<svg width="20" height="20" viewBox="0 0 20 20" fill="none" xmlns="http://www.w3.org/2000/svg">
<path fill-rule="evenodd" clip-rule="evenodd" d="M4.16667 2.5H15.8333C16.75 2.5 17.5 3.25 17.5 4.16667V15.8333C17.5 16.75 16.75 17.5 15.8333 17.5H4.16667C3.25 17.5 2.5 16.75 2.5 15.8333V13.3333C2.5 12.875 2.875 12.5 3.33333 12.5C3.79167 12.5 4.16667 12.875 4.16667 13.3333V15C4.16667 15.4583 4.54167 15.8333 5 15.8333H15C15.4583 15.8333 15.8333 15.4583 15.8333 15V5C15.8333 4.54167 15.4583 4.16667 15 4.16667H5C4.54167 4.16667 4.16667 4.54167 4.16667 5V6.66667C4.16667 7.125 3.79167 7.5 3.33333 7.5C2.875 7.5 2.5 7.125 2.5 6.66667V4.16667C2.5 3.25 3.24167 2.5 4.16667 2.5ZM13.1583 10.5833L10.1667 13.575C9.84167 13.9 9.31667 13.9 8.99167 13.575C8.675 13.2583 8.66667 12.725 8.99167 12.4L10.5583 10.8333H3.33333C2.875 10.8333 2.5 10.4583 2.5 10C2.5 9.54167 2.875 9.16667 3.33333 9.16667H10.5583L8.99167 7.59167C8.66667 7.26667 8.66667 6.74167 8.99167 6.41667C9.14736 6.26062 9.35874 6.17293 9.57917 6.17293C9.7996 6.17293 10.011 6.26062 10.1667 6.41667L13.1583 9.40833C13.4833 9.73333 13.4833 10.2583 13.1583 10.5833Z" fill="white"/>
</svg>
