<svg width="20" height="21" viewBox="0 0 20 21" fill="none" xmlns="http://www.w3.org/2000/svg">
<g clip-path="url(#clip0_1077_18027)">
<path d="M16.6667 3.47428H15.8334V2.64095C15.8334 2.18262 15.4584 1.80762 15.0001 1.80762C14.5417 1.80762 14.1667 2.18262 14.1667 2.64095V3.47428H5.83342V2.64095C5.83342 2.18262 5.45841 1.80762 5.00008 1.80762C4.54175 1.80762 4.16675 2.18262 4.16675 2.64095V3.47428H3.33341C2.41675 3.47428 1.66675 4.22428 1.66675 5.14095V18.4743C1.66675 19.3909 2.41675 20.1409 3.33341 20.1409H16.6667C17.5834 20.1409 18.3334 19.3909 18.3334 18.4743V5.14095C18.3334 4.22428 17.5834 3.47428 16.6667 3.47428ZM15.8334 18.4743H4.16675C3.70841 18.4743 3.33341 18.0993 3.33341 17.6409V7.64095H16.6667V17.6409C16.6667 18.0993 16.2917 18.4743 15.8334 18.4743Z" fill="white"/>
</g>
<defs>
<clipPath id="clip0_1077_18027">
<rect width="20" height="20" fill="white" transform="translate(0 0.974609)"/>
</clipPath>
</defs>
</svg>
