<svg width="20" height="21" viewBox="0 0 20 21" fill="none" xmlns="http://www.w3.org/2000/svg">
<path d="M10.0001 19.3745C9.75008 19.3745 9.50008 19.3162 9.29175 19.1995C7.73341 18.3495 4.99175 17.4495 3.27508 17.2245L3.03341 17.1912C1.94175 17.0579 1.04175 16.0329 1.04175 14.9245V4.85787C1.04175 4.19953 1.30008 3.59953 1.77508 3.1662C2.25008 2.73287 2.86675 2.52453 3.51675 2.58287C5.35008 2.72453 8.11675 3.6412 9.68342 4.62453L9.88342 4.7412C9.94175 4.77453 10.0667 4.77453 10.1167 4.74953L10.2501 4.6662C11.8167 3.68287 14.5834 2.74953 16.4251 2.5912C16.4417 2.5912 16.5084 2.5912 16.5251 2.5912C17.1334 2.53287 17.7584 2.74953 18.2251 3.18287C18.7001 3.6162 18.9584 4.2162 18.9584 4.87453V14.9329C18.9584 16.0495 18.0584 17.0662 16.9584 17.1995L16.6834 17.2329C14.9667 17.4579 12.2167 18.3662 10.6917 19.2079C10.4917 19.3245 10.2501 19.3745 10.0001 19.3745ZM3.31675 3.82453C3.05008 3.82453 2.80841 3.9162 2.61675 4.0912C2.40841 4.28287 2.29175 4.55787 2.29175 4.85787V14.9245C2.29175 15.4162 2.71675 15.8912 3.19175 15.9579L3.44175 15.9912C5.31675 16.2412 8.19175 17.1829 9.85841 18.0912C9.93342 18.1245 10.0417 18.1329 10.0834 18.1162C11.7501 17.1912 14.6417 16.2412 16.5251 15.9912L16.8084 15.9579C17.2834 15.8995 17.7084 15.4162 17.7084 14.9245V4.8662C17.7084 4.55787 17.5917 4.2912 17.3834 4.0912C17.1667 3.89953 16.8917 3.80787 16.5834 3.82453C16.5667 3.82453 16.5001 3.82453 16.4834 3.82453C14.8917 3.9662 12.3251 4.82453 10.9251 5.69953L10.7917 5.7912C10.3334 6.07453 9.68342 6.07453 9.24175 5.79953L9.04175 5.68287C7.61675 4.80787 5.05008 3.95787 3.41675 3.82453C3.38341 3.82453 3.35008 3.82453 3.31675 3.82453Z" fill="white"/>
<path d="M10 18.6748C9.65833 18.6748 9.375 18.3915 9.375 18.0498V5.5498C9.375 5.20814 9.65833 4.9248 10 4.9248C10.3417 4.9248 10.625 5.20814 10.625 5.5498V18.0498C10.625 18.3998 10.3417 18.6748 10 18.6748Z" fill="white"/>
<path d="M6.45825 8.6748H4.58325C4.24159 8.6748 3.95825 8.39147 3.95825 8.0498C3.95825 7.70814 4.24159 7.4248 4.58325 7.4248H6.45825C6.79992 7.4248 7.08325 7.70814 7.08325 8.0498C7.08325 8.39147 6.79992 8.6748 6.45825 8.6748Z" fill="white"/>
<path d="M7.08325 11.1748H4.58325C4.24159 11.1748 3.95825 10.8915 3.95825 10.5498C3.95825 10.2081 4.24159 9.9248 4.58325 9.9248H7.08325C7.42492 9.9248 7.70825 10.2081 7.70825 10.5498C7.70825 10.8915 7.42492 11.1748 7.08325 11.1748Z" fill="white"/>
</svg>
