<svg width="20" height="20" viewBox="0 0 20 20" fill="none" xmlns="http://www.w3.org/2000/svg">
<path d="M5.38448 10.0004V6.9659C5.39349 6.36942 5.52011 5.78059 5.75708 5.23314C5.99405 4.68568 6.33672 4.19037 6.76544 3.77558C7.19417 3.36078 7.70053 3.03466 8.25552 2.8159C8.8105 2.59714 9.40319 2.49004 9.99964 2.50073C10.5961 2.49004 11.1888 2.59714 11.7438 2.8159C12.2987 3.03466 12.8051 3.36078 13.2338 3.77558C13.6626 4.19037 14.0052 4.68568 14.2422 5.23314C14.4792 5.78059 14.6058 6.36942 14.6148 6.9659V10.0004M12.3072 16.0578C12.9192 16.0578 13.5062 15.8146 13.9389 15.3819C14.3717 14.9491 14.6148 14.3622 14.6148 13.7502V11.1542M12.3072 16.0578C12.3072 16.4403 12.1553 16.8071 11.8848 17.0776C11.6143 17.3481 11.2475 17.5 10.865 17.5H9.13429C8.75179 17.5 8.38495 17.3481 8.11448 17.0776C7.84401 16.8071 7.69206 16.4403 7.69206 16.0578C7.69206 15.6753 7.84401 15.3084 8.11448 15.0379C8.38495 14.7675 8.75179 14.6155 9.13429 14.6155H10.865C11.2475 14.6155 11.6143 14.7675 11.8848 15.0379C12.1553 15.3084 12.3072 15.6753 12.3072 16.0578ZM3.65379 8.26968H4.80758C4.96058 8.26968 5.10732 8.33046 5.21551 8.43865C5.3237 8.54684 5.38448 8.69357 5.38448 8.84657V12.3079C5.38448 12.4609 5.3237 12.6077 5.21551 12.7159C5.10732 12.8241 4.96058 12.8848 4.80758 12.8848H3.65379C3.34779 12.8848 3.05431 12.7633 2.83794 12.5469C2.62156 12.3305 2.5 12.0371 2.5 11.731V9.42347C2.5 9.11746 2.62156 8.82399 2.83794 8.60762C3.05431 8.39124 3.34779 8.26968 3.65379 8.26968ZM16.3455 12.8848H15.1917C15.0387 12.8848 14.892 12.8241 14.7838 12.7159C14.6756 12.6077 14.6148 12.4609 14.6148 12.3079V8.84657C14.6148 8.69357 14.6756 8.54684 14.7838 8.43865C14.892 8.33046 15.0387 8.26968 15.1917 8.26968H16.3455C16.6515 8.26968 16.945 8.39124 17.1613 8.60762C17.3777 8.82399 17.4993 9.11746 17.4993 9.42347V11.731C17.4993 12.0371 17.3777 12.3305 17.1613 12.5469C16.945 12.7633 16.6515 12.8848 16.3455 12.8848Z" stroke="white" stroke-width="1.5" stroke-linecap="round" stroke-linejoin="round"/>
</svg>
