<svg width="20" height="21" viewBox="0 0 20 21" fill="none" xmlns="http://www.w3.org/2000/svg">
<path d="M13.4917 2.6416H6.50841C3.47508 2.6416 1.66675 4.44993 1.66675 7.48327V14.4583C1.66675 17.4999 3.47508 19.3083 6.50841 19.3083H13.4834C16.5167 19.3083 18.3251 17.4999 18.3251 14.4666V7.48327C18.3334 4.44993 16.5251 2.6416 13.4917 2.6416ZM14.1667 14.0666C14.1667 15.3749 13.4501 15.6833 12.5834 14.7499C12.1834 14.3249 11.5667 14.3583 11.2167 14.8249L10.7251 15.4833C10.3334 16.0083 9.68341 16.0083 9.29175 15.4833L8.79175 14.8166C8.44175 14.3499 7.82508 14.3166 7.42508 14.7416C6.55008 15.6749 5.83341 15.3666 5.83341 14.0666V8.5416C5.83341 6.5666 6.30008 6.07493 8.15008 6.07493H11.8501C13.7001 6.07493 14.1667 6.5666 14.1667 8.5416V14.0666Z" fill="white"/>
</svg>
