<svg width="20" height="21" viewBox="0 0 20 21" fill="none" xmlns="http://www.w3.org/2000/svg">
<path d="M10.0001 2.6416C5.40008 2.6416 1.66675 6.37494 1.66675 10.9749C1.66675 15.5749 5.40008 19.3083 10.0001 19.3083C14.6001 19.3083 18.3334 15.5749 18.3334 10.9749C18.3334 6.37494 14.6001 2.6416 10.0001 2.6416ZM10.0001 5.97494C11.6084 5.97494 12.9167 7.28327 12.9167 8.8916C12.9167 10.4999 11.6084 11.8083 10.0001 11.8083C8.39175 11.8083 7.08342 10.4999 7.08342 8.8916C7.08342 7.28327 8.39175 5.97494 10.0001 5.97494ZM10.0001 17.6416C8.30841 17.6416 6.30841 16.9583 4.88341 15.2416C6.29175 14.1416 8.06675 13.4749 10.0001 13.4749C11.9334 13.4749 13.7084 14.1416 15.1167 15.2416C13.6917 16.9583 11.6917 17.6416 10.0001 17.6416Z" fill="white"/>
</svg>
