<svg width="20" height="20" viewBox="0 0 20 20" fill="none" xmlns="http://www.w3.org/2000/svg">
<path d="M10.0001 1.66699C5.40008 1.66699 1.66675 5.40033 1.66675 10.0003C1.66675 14.6003 5.40008 18.3337 10.0001 18.3337C14.6001 18.3337 18.3334 14.6003 18.3334 10.0003C18.3334 5.40033 14.6001 1.66699 10.0001 1.66699ZM10.0001 16.667C6.32508 16.667 3.33341 13.6753 3.33341 10.0003C3.33341 6.32533 6.32508 3.33366 10.0001 3.33366C13.6751 3.33366 16.6667 6.32533 16.6667 10.0003C16.6667 13.6753 13.6751 16.667 10.0001 16.667ZM9.16675 13.3337H10.8334V15.0003H9.16675V13.3337ZM10.5084 5.03366C8.79175 4.78366 7.27508 5.84199 6.81675 7.35866C6.66675 7.84199 7.03342 8.33366 7.54175 8.33366H7.70842C8.05008 8.33366 8.32508 8.09199 8.44175 7.77533C8.70842 7.03366 9.50008 6.52533 10.3584 6.70866C11.1501 6.87533 11.7334 7.65033 11.6667 8.45866C11.5834 9.57533 10.3167 9.81699 9.62508 10.8587C9.62508 10.867 9.61675 10.867 9.61675 10.8753C9.60842 10.892 9.60008 10.9003 9.59175 10.917C9.51675 11.042 9.44175 11.1837 9.38342 11.3337C9.37508 11.3587 9.35842 11.3753 9.35008 11.4003C9.34175 11.417 9.34175 11.4337 9.33342 11.4587C9.23342 11.742 9.16675 12.0837 9.16675 12.5003H10.8334C10.8334 12.1503 10.9251 11.8587 11.0667 11.6087C11.0834 11.5837 11.0917 11.5587 11.1084 11.5337C11.1751 11.417 11.2584 11.3087 11.3417 11.2087C11.3501 11.2003 11.3584 11.1837 11.3667 11.1753C11.4501 11.0753 11.5417 10.9837 11.6417 10.892C12.4417 10.1337 13.5251 9.51699 13.3001 7.92533C13.1001 6.47533 11.9584 5.25033 10.5084 5.03366Z" fill="white"/>
</svg>
