<svg width="16" height="16" viewBox="0 0 16 16" fill="none" xmlns="http://www.w3.org/2000/svg">
<path opacity="0.4" d="M14.0548 5.72006V10.28C14.0548 11.0267 13.6548 11.7201 13.0081 12.1001L9.0481 14.3867C8.40143 14.7601 7.60141 14.7601 6.94808 14.3867L2.98808 12.1001C2.34141 11.7267 1.94141 11.0334 1.94141 10.28V5.72006C1.94141 4.9734 2.34141 4.28004 2.98808 3.90004L6.94808 1.61337C7.59475 1.24004 8.39476 1.24004 9.0481 1.61337L13.0081 3.90004C13.6548 4.28004 14.0548 4.96673 14.0548 5.72006Z" fill="#DC2626"/>
<path d="M8 9.16663C7.72667 9.16663 7.5 8.93996 7.5 8.66663V5.16663C7.5 4.89329 7.72667 4.66663 8 4.66663C8.27333 4.66663 8.5 4.89329 8.5 5.16663V8.66663C8.5 8.93996 8.27333 9.16663 8 9.16663Z" fill="#DC2626"/>
<path d="M7.9987 11.4999C7.91203 11.4999 7.82536 11.4799 7.74536 11.4466C7.65869 11.4133 7.59202 11.3666 7.52535 11.3066C7.46535 11.24 7.4187 11.1666 7.3787 11.0866C7.34537 11.0066 7.33203 10.9199 7.33203 10.8333C7.33203 10.6599 7.39868 10.4866 7.52535 10.3599C7.59202 10.2999 7.65869 10.2533 7.74536 10.22C7.99203 10.1133 8.28538 10.1733 8.47205 10.3599C8.53205 10.4266 8.57869 10.4933 8.61202 10.5799C8.64535 10.6599 8.66536 10.7466 8.66536 10.8333C8.66536 10.9199 8.64535 11.0066 8.61202 11.0866C8.57869 11.1666 8.53205 11.24 8.47205 11.3066C8.34538 11.4333 8.1787 11.4999 7.9987 11.4999Z" fill="#DC2626"/>
</svg>
