<svg width="16" height="16" viewBox="0 0 16 16" fill="none" xmlns="http://www.w3.org/2000/svg">
<path opacity="0.4" d="M7.9987 14.6667C11.6806 14.6667 14.6654 11.6819 14.6654 8.00004C14.6654 4.31814 11.6806 1.33337 7.9987 1.33337C4.3168 1.33337 1.33203 4.31814 1.33203 8.00004C1.33203 11.6819 4.3168 14.6667 7.9987 14.6667Z" fill="#059669"/>
<path d="M7.05297 10.3866C6.91964 10.3866 6.79297 10.3333 6.69964 10.2399L4.81297 8.35328C4.61964 8.15994 4.61964 7.83994 4.81297 7.64661C5.0063 7.45328 5.3263 7.45328 5.51964 7.64661L7.05297 9.17994L10.4796 5.75328C10.673 5.55994 10.993 5.55994 11.1863 5.75328C11.3796 5.94661 11.3796 6.26661 11.1863 6.45994L7.4063 10.2399C7.31297 10.3333 7.1863 10.3866 7.05297 10.3866Z" fill="#059669"/>
</svg>
